<svg width="22" height="22" viewBox="0 0 22 22" fill="none" xmlns="http://www.w3.org/2000/svg">
<path fill-rule="evenodd" clip-rule="evenodd" d="M5.33225 8.9374V7.11108C5.33225 3.79738 8.01854 1.11108 11.3322 1.11108C14.646 1.11108 17.3323 3.79738 17.3323 7.11108V8.9374C18.3231 9.01141 18.9684 9.19824 19.4401 9.66991C20.2211 10.451 20.2211 11.708 20.2211 14.2222C20.2211 16.7364 20.2211 17.9934 19.4401 18.7745C18.659 19.5555 17.402 19.5555 14.8878 19.5555H7.77669C5.26254 19.5555 4.00546 19.5555 3.22441 18.7745C2.44336 17.9934 2.44336 16.7364 2.44336 14.2222C2.44336 11.708 2.44336 10.451 3.22441 9.66991C3.69608 9.19824 4.34136 9.01141 5.33225 8.9374ZM6.66558 7.11108C6.66558 4.53376 8.75492 2.44442 11.3322 2.44442C13.9096 2.44442 15.9989 4.53376 15.9989 7.11108V8.89204C15.6585 8.88886 15.2892 8.88886 14.8878 8.88886H7.77669C7.37535 8.88886 7.00604 8.88886 6.66558 8.89204V7.11108Z" fill="url(#paint0_linear_1_21764)"/>
<defs>
<linearGradient id="paint0_linear_1_21764" x1="2.44336" y1="10.3333" x2="20.2211" y2="10.3333" gradientUnits="userSpaceOnUse">
<stop stop-color="#062236"/>
<stop offset="1" stop-color="#212528"/>
</linearGradient>
</defs>
</svg>
