<svg width="16" height="17" viewBox="0 0 16 17" fill="none" xmlns="http://www.w3.org/2000/svg">
<path d="M14.1162 7.09298C13.8806 6.84673 13.6369 6.59298 13.545 6.36986C13.46 6.16548 13.455 5.82673 13.45 5.49861C13.4406 4.88861 13.4306 4.19736 12.95 3.71673C12.4694 3.23611 11.7781 3.22611 11.1681 3.21673C10.84 3.21173 10.5012 3.20673 10.2969 3.12173C10.0744 3.02986 9.82 2.78611 9.57375 2.55048C9.1425 2.13611 8.6525 1.66673 8 1.66673C7.3475 1.66673 6.85812 2.13611 6.42625 2.55048C6.18 2.78611 5.92625 3.02986 5.70312 3.12173C5.5 3.20673 5.16 3.21173 4.83187 3.21673C4.22187 3.22611 3.53062 3.23611 3.05 3.71673C2.56937 4.19736 2.5625 4.88861 2.55 5.49861C2.545 5.82673 2.54 6.16548 2.455 6.36986C2.36312 6.59236 2.11937 6.84673 1.88375 7.09298C1.46937 7.52423 1 8.01423 1 8.66673C1 9.31923 1.46937 9.80861 1.88375 10.2405C2.11937 10.4867 2.36312 10.7405 2.455 10.9636C2.54 11.168 2.545 11.5067 2.55 11.8349C2.55937 12.4449 2.56937 13.1361 3.05 13.6167C3.53062 14.0974 4.22187 14.1074 4.83187 14.1167C5.16 14.1217 5.49875 14.1267 5.70312 14.2117C5.92562 14.3036 6.18 14.5474 6.42625 14.783C6.8575 15.1974 7.3475 15.6667 8 15.6667C8.6525 15.6667 9.14187 15.1974 9.57375 14.783C9.82 14.5474 10.0737 14.3036 10.2969 14.2117C10.5012 14.1267 10.84 14.1217 11.1681 14.1167C11.7781 14.1074 12.4694 14.0974 12.95 13.6167C13.4306 13.1361 13.4406 12.4449 13.45 11.8349C13.455 11.5067 13.46 11.168 13.545 10.9636C13.6369 10.7411 13.8806 10.4867 14.1162 10.2405C14.5306 9.80923 15 9.31923 15 8.66673C15 8.01423 14.5306 7.52486 14.1162 7.09298ZM10.8537 7.52048L7.35375 11.0205C7.30731 11.067 7.25217 11.1039 7.19147 11.129C7.13077 11.1542 7.06571 11.1671 7 11.1671C6.93429 11.1671 6.86923 11.1542 6.80853 11.129C6.74783 11.1039 6.69269 11.067 6.64625 11.0205L5.14625 9.52048C5.05243 9.42666 4.99972 9.29941 4.99972 9.16673C4.99972 9.03405 5.05243 8.9068 5.14625 8.81298C5.24007 8.71916 5.36732 8.66645 5.5 8.66645C5.63268 8.66645 5.75993 8.71916 5.85375 8.81298L7 9.95986L10.1462 6.81298C10.1927 6.76653 10.2479 6.72968 10.3086 6.70454C10.3692 6.67939 10.4343 6.66645 10.5 6.66645C10.5657 6.66645 10.6308 6.67939 10.6914 6.70454C10.7521 6.72968 10.8073 6.76653 10.8537 6.81298C10.9002 6.85944 10.9371 6.91459 10.9622 6.97528C10.9873 7.03598 11.0003 7.10104 11.0003 7.16673C11.0003 7.23243 10.9873 7.29748 10.9622 7.35818C10.9371 7.41888 10.9002 7.47403 10.8537 7.52048Z" fill="url(#paint0_linear_1_21707)"/>
<defs>
<linearGradient id="paint0_linear_1_21707" x1="1" y1="1.66673" x2="15" y2="15.6667" gradientUnits="userSpaceOnUse">
<stop stop-color="#00BDFA"/>
<stop offset="1" stop-color="#78DDFF"/>
</linearGradient>
</defs>
</svg>
